<svg width="167" height="51" viewBox="0 0 167 51" fill="none" xmlns="http://www.w3.org/2000/svg">
<path d="M33.3381 15.0518V24.1454C31.6322 23.0087 29.7313 22.1325 27.6355 21.5168C25.5884 20.8537 23.4682 20.5222 21.2749 20.5222C18.9354 20.5222 16.8884 20.9721 15.1337 21.872C13.3791 22.7246 11.99 23.9797 10.9665 25.6374C9.99167 27.2477 9.50427 29.1895 9.50427 31.4629C9.50427 33.6416 9.99167 35.5598 10.9665 37.2175C11.99 38.8278 13.3791 40.1066 15.1337 41.0539C16.8884 41.9537 18.9111 42.4037 21.2018 42.4037C23.4439 42.4037 25.5884 42.0722 27.6355 41.4091C29.7313 40.746 31.6322 39.8461 33.3381 38.7094V47.803C31.7784 48.845 29.9019 49.6502 27.7086 50.2185C25.5641 50.7395 23.2733 51 20.8363 51C16.8884 51 13.3304 50.1475 10.1623 48.4424C7.04291 46.7374 4.55718 44.4166 2.70506 41.4801C0.901688 38.5436 0 35.2046 0 31.4629C0 27.5792 0.926057 24.1691 2.77817 21.2326C4.63029 18.2962 7.14039 16.0228 10.3085 14.4124C13.4766 12.7547 17.0102 11.9259 20.9094 11.9259C23.3464 11.9259 25.6372 12.1864 27.7817 12.7074C29.9263 13.2284 31.7784 14.0098 33.3381 15.0518Z" fill="#FFFADC"/>
<path d="M62.7533 40.7697L63.4113 45.3875C62.6802 46.2874 61.7054 47.1873 60.4869 48.0872C59.2684 48.9397 57.855 49.6502 56.2466 50.2185C54.6381 50.7395 52.8348 51 50.8364 51C46.9372 51 43.8666 50.1001 41.6246 48.3003C39.3826 46.4532 38.2615 43.8719 38.2615 40.5566C38.2615 38.2358 38.9439 36.2229 40.3086 34.5178C41.7221 32.8128 43.6229 31.4866 46.0112 30.5394C48.3994 29.5921 51.1045 29.1185 54.1264 29.1185C56.2709 29.1185 58.0987 29.3079 59.6096 29.6868C61.1205 30.0657 62.2416 30.4446 62.9727 30.8235L63.3382 36.365C62.5584 36.0334 61.5105 35.7729 60.1945 35.5835C58.8785 35.3467 57.5625 35.2283 56.2466 35.2283C53.3222 35.2283 51.0314 35.6545 49.3742 36.5071C47.7658 37.3596 46.9616 38.5436 46.9616 40.0592C46.9616 41.4801 47.4978 42.4984 48.57 43.1141C49.6423 43.7298 50.9827 44.0377 52.5911 44.0377C54.4919 44.0377 56.344 43.7298 58.1474 43.1141C59.9995 42.4511 61.5348 41.6696 62.7533 40.7697ZM62.1684 28.5501C62.1684 26.7504 61.7785 25.3058 60.9987 24.2165C60.2676 23.1271 59.2684 22.322 58.0012 21.801C56.734 21.28 55.2961 21.0195 53.6877 21.0195C50.8121 21.0195 48.0339 21.6115 45.3532 22.7956C42.7212 23.9323 40.5767 25.3058 38.9195 26.9161V17.5384C39.7969 16.6858 41.0154 15.8333 42.575 14.9808C44.1834 14.1282 46.0356 13.4178 48.1314 12.8495C50.2272 12.2337 52.4936 11.9259 54.9306 11.9259C57.9525 11.9259 60.7306 12.4706 63.2651 13.5599C65.7996 14.6492 67.7979 16.378 69.2601 18.7461C70.771 21.0669 71.5265 24.1928 71.5265 28.1239V50.2896H62.7533V43.6825L62.1684 42.901V28.5501Z" fill="#FFFADC"/>
<path d="M79.9301 12.6363H88.7764V20.3801L89.3613 21.6589V50.2896H79.9301V12.6363ZM101.498 11.9259C102.862 11.9259 104.227 12.2101 105.592 12.7784V22.5114C104.714 22.0378 103.642 21.6352 102.375 21.3037C101.156 20.9721 99.816 20.8064 98.3538 20.8064C96.9403 20.8064 95.5756 20.9958 94.2597 21.3747C92.9924 21.7063 91.7983 22.1562 90.6773 22.7246C89.605 23.2455 88.6789 23.7665 87.8991 24.2875L87.826 18.4619C88.8008 17.4673 89.9705 16.4727 91.3353 15.4781C92.7487 14.4361 94.3084 13.5836 96.0143 12.9205C97.7689 12.2574 99.5967 11.9259 101.498 11.9259Z" fill="#FFFADC"/>
<path d="M131.46 20.0959C129.315 20.0959 127.293 20.4748 125.392 21.2326C123.491 21.9904 121.956 23.2219 120.786 24.9269C119.616 26.5846 119.031 28.858 119.031 31.7471C119.031 35.4414 119.982 38.2121 121.883 40.0592C123.783 41.9064 126.245 42.83 129.267 42.83C130.631 42.83 131.923 42.6642 133.141 42.3326C134.409 41.9538 135.505 41.5275 136.431 41.0539C137.406 40.5802 138.089 40.1777 138.479 39.8461L139.063 46.169C138.235 47.0215 137.211 47.8267 135.993 48.5845C134.774 49.2949 133.385 49.8633 131.826 50.2896C130.266 50.7632 128.462 51 126.415 51C124.32 51 122.248 50.6448 120.201 49.9343C118.203 49.2239 116.375 48.1346 114.718 46.6663C113.109 45.1507 111.793 43.2089 110.77 40.8407C109.795 38.4726 109.308 35.6545 109.308 32.3865C109.308 28.8343 109.917 25.7794 111.135 23.2219C112.354 20.6169 113.987 18.4856 116.034 16.8279C118.13 15.1702 120.469 13.9388 123.052 13.1336C125.636 12.3285 128.268 11.9259 130.948 11.9259C133.336 11.9259 135.359 12.1153 137.016 12.4942C138.673 12.8258 140.282 13.2284 141.842 13.702L139.063 21.5878C138.186 21.2089 137.089 20.8774 135.773 20.5932C134.506 20.2617 133.068 20.0959 131.46 20.0959ZM136.943 42.5458V1.4114L146.374 0.132613V50.2896H137.528V43.5404L136.943 42.5458Z" fill="#FFFADC"/>
<path d="M167 17.3784H150.736V14.2306L160.218 3.96753H151.411V0H166.325V3.14779L156.776 13.4109H167V17.3784Z" fill="#FFFADC"/>
<path d="M161.314 50.2896H150.471V48.191L156.792 41.349H150.921V38.704H160.864V40.8025L154.498 47.6445H161.314V50.2896Z" fill="#FFFADC"/>
<path d="M163.806 35.3861H150.253V32.7629L158.155 24.2103H150.815V20.904H163.244V23.5272L155.286 32.0798H163.806V35.3861Z" fill="#FFFADC"/>
</svg>
